<svg xmlns="http://www.w3.org/2000/svg" width="150" height="40" viewBox="0 0 150 40" fill="none">
<g id="Type=imagotipo, Marca=mifarma, Color=color">
<g id="nombre">
<path id="Vector" d="M28.2713 12.2915C28.3392 11.9913 28.4676 11.7137 28.6414 11.4585C28.8151 11.2034 29.0341 10.9708 29.306 10.7682C29.578 10.5581 29.865 10.408 30.1671 10.3029C30.4692 10.1979 30.7864 10.1454 31.1188 10.1454C31.4134 10.1454 31.6777 10.1904 31.9194 10.2729C32.1611 10.3555 32.3802 10.483 32.5614 10.6556C32.7427 10.8207 32.8862 11.0158 32.9768 11.2334C33.0675 11.4435 33.1128 11.6762 33.1128 11.9313C33.1128 11.9913 33.1053 12.0589 33.0977 12.1414C33.0901 12.2164 33.075 12.299 33.0524 12.389C32.9768 12.6892 32.856 12.9668 32.6823 13.222C32.5086 13.4771 32.2895 13.7097 32.0176 13.9123C31.7457 14.1224 31.4587 14.2725 31.1565 14.3776C30.8544 14.4826 30.5372 14.5352 30.2049 14.5352C29.9103 14.5352 29.6459 14.4901 29.4042 14.4076C29.1625 14.3251 28.9435 14.1975 28.7622 14.0249C28.5809 13.8523 28.4374 13.6647 28.3468 13.4546C28.2562 13.2445 28.2108 13.0119 28.2108 12.7567C28.2108 12.6967 28.2184 12.6292 28.2259 12.5466C28.2411 12.4716 28.2562 12.389 28.2713 12.2915ZM3.48953 12.5016C3.51975 12.374 3.54241 12.2465 3.58017 12.1339C3.61794 12.0138 3.6557 11.9013 3.69347 11.7962C3.73879 11.6837 3.7841 11.5786 3.84453 11.4736C3.8974 11.3685 3.95783 11.2784 4.01825 11.1884C4.07868 11.1059 4.1391 11.0308 4.20708 10.9558C4.27506 10.8807 4.34303 10.8057 4.41101 10.7382C4.47899 10.6706 4.55452 10.6106 4.63005 10.5506L4.66026 10.5281L4.65271 10.513L4.8642 10.378C4.93973 10.333 5.02281 10.2879 5.1059 10.2429C5.18898 10.2054 5.27962 10.1679 5.3627 10.1378C5.44579 10.1078 5.52887 10.0778 5.61951 10.0478C5.71015 10.0178 5.80078 9.99527 5.89142 9.97276C5.96695 9.95775 6.05759 9.94275 6.14823 9.92774C6.23131 9.91273 6.32195 9.90523 6.40503 9.89772C6.49567 9.88271 6.57875 9.87521 6.66939 9.87521C6.76003 9.86771 6.85066 9.86771 6.9262 9.86771H8.27065C8.67852 9.86771 9.04106 9.91273 9.34319 10.0103C9.66042 10.1078 9.92478 10.2579 10.1363 10.4605C10.242 10.5581 10.3402 10.6856 10.4233 10.8207C10.5064 10.9558 10.5743 11.1059 10.6348 11.2709C10.6952 11.4285 10.7405 11.6011 10.7783 11.7812C10.816 11.9613 10.8463 12.1639 10.8689 12.374L12.0396 23.7875L18.0142 12.2239L18.0217 12.2164L18.0293 12.2089C18.135 12.0063 18.2483 11.8187 18.3616 11.6461C18.4749 11.4736 18.5882 11.3085 18.709 11.1659C18.8299 11.0158 18.9507 10.8807 19.0791 10.7607C19.2075 10.6406 19.3359 10.5281 19.4643 10.438C19.6003 10.3405 19.7438 10.2579 19.8949 10.1904C20.0459 10.1228 20.2045 10.0628 20.3783 10.0178C20.552 9.97276 20.7257 9.93524 20.907 9.91273C21.0883 9.89022 21.2771 9.88271 21.4735 9.88271H22.7651C22.8935 9.88271 23.0445 9.89022 23.1956 9.90523C23.2711 9.91273 23.3391 9.92023 23.4071 9.92774C23.475 9.93524 23.5506 9.95025 23.6186 9.96526C23.6941 9.98027 23.7696 9.99527 23.8451 10.0178C23.9207 10.0403 23.9887 10.0628 24.0566 10.0853C24.1246 10.1078 24.1926 10.1378 24.2606 10.1754C24.3285 10.2054 24.389 10.2429 24.4569 10.2804C24.5249 10.3254 24.5854 10.363 24.6458 10.4155C24.7062 10.4605 24.7591 10.513 24.8119 10.5656C24.8648 10.6181 24.9177 10.6781 24.963 10.7382C25.0083 10.7982 25.0536 10.8657 25.0914 10.9258C25.1745 11.0683 25.2349 11.2259 25.2802 11.3985C25.318 11.5636 25.3407 11.7512 25.3407 11.9463C25.3407 11.9988 25.3407 12.0664 25.3331 12.1339C25.3256 12.2014 25.3256 12.2615 25.318 12.329C25.3104 12.3815 25.3029 12.4491 25.2878 12.5241C25.2727 12.5991 25.2576 12.6592 25.2425 12.7267L21.8285 29.0028L21.8209 29.0328C21.7907 29.1979 21.7454 29.3555 21.6925 29.513C21.6396 29.6706 21.5792 29.8207 21.5037 29.9708C21.4282 30.1209 21.3451 30.2634 21.2544 30.3985C21.1638 30.5336 21.0581 30.6686 20.9448 30.7962C20.8164 30.9388 20.6804 31.0664 20.5293 31.1714C20.3783 31.2765 20.2121 31.3665 20.0308 31.4341C19.8571 31.5016 19.6683 31.5541 19.4795 31.5916C19.2831 31.6217 19.0791 31.6442 18.8677 31.6442C18.5051 31.6442 18.1879 31.5916 17.916 31.4866C17.6289 31.374 17.4023 31.2164 17.2286 30.9913C17.1455 30.8938 17.0776 30.7812 17.0171 30.6762C16.9567 30.5636 16.9038 30.4435 16.8661 30.3235C16.8283 30.2034 16.7981 30.0758 16.7754 29.9483C16.7528 29.8207 16.7452 29.6931 16.7452 29.5581V29.483C16.7452 29.453 16.7452 29.423 16.7452 29.393C16.7452 29.348 16.7528 29.3179 16.7528 29.2954C16.7528 29.2504 16.7603 29.2279 16.7603 29.2129C16.7603 29.1904 16.7679 29.1604 16.7679 29.1228C16.7679 29.1003 16.7754 29.0703 16.783 29.0253C16.7905 28.9878 16.7905 28.9578 16.7981 28.9352C16.8057 28.8977 16.8057 28.8677 16.8132 28.8527L16.8208 28.8227V28.8152L18.7846 19.4653L13.1651 30.0458C13.014 30.3235 12.8478 30.5636 12.659 30.7662C12.4626 30.9763 12.2587 31.1414 12.0245 31.2615C11.9112 31.3215 11.7979 31.374 11.6771 31.419C11.5638 31.4641 11.4354 31.5016 11.307 31.5316C11.1786 31.5616 11.0426 31.5841 10.9142 31.5991C10.7783 31.6141 10.6423 31.6217 10.5064 31.6217C10.2193 31.6217 9.95499 31.5916 9.72084 31.5241C9.47914 31.4566 9.2601 31.359 9.07128 31.2239C8.86734 31.0814 8.70873 30.8938 8.58788 30.6611C8.47458 30.436 8.39905 30.1734 8.36129 29.8657V29.8507L7.15279 19.2401L5.09079 28.9803V28.9953C5.06058 29.1604 5.01526 29.3179 4.96239 29.4755C4.90196 29.6331 4.84154 29.7832 4.76601 29.9333C4.69048 30.0833 4.60739 30.2259 4.51676 30.361C4.42612 30.4961 4.32037 30.6311 4.20708 30.7587C4.07868 30.9013 3.94272 31.0288 3.79166 31.1339C3.6406 31.239 3.47443 31.329 3.29315 31.3965C3.11943 31.4641 2.9306 31.5166 2.74178 31.5541C2.5454 31.5841 2.34146 31.6066 2.12998 31.6066C1.76743 31.6066 1.4502 31.5541 1.17828 31.4491C0.898819 31.3365 0.664673 31.1789 0.490952 30.9538C0.407868 30.8563 0.33989 30.7437 0.279465 30.6386C0.21904 30.5261 0.166168 30.406 0.128403 30.2859C0.0906372 30.1659 0.0604248 30.0383 0.0377655 29.9108C0.0075531 29.7907 0 29.6556 0 29.5205C0 29.5205 0 29.4905 0 29.4455C0 29.4155 0 29.3855 0 29.3555C0 29.3179 0 29.2804 0.0075531 29.2654C0.0075531 29.2204 0.0151062 29.1904 0.0151062 29.1829C0.0151062 29.1604 0.0226593 29.1303 0.0226593 29.0928C0.0226593 29.0703 0.0302124 29.0403 0.0377655 28.9953C0.0453186 28.9578 0.0453186 28.9277 0.0528717 28.9052C0.0604248 28.8827 0.0604248 28.8527 0.0679779 28.8227L0.075531 28.7927L3.46687 12.6367L3.48953 12.5016ZM26.5945 17.8144C26.6549 17.5292 26.7455 17.2516 26.8739 16.9965C27.0023 16.7413 27.161 16.5012 27.3573 16.2836C27.5688 16.051 27.8407 15.8709 28.1655 15.7583C28.4828 15.6457 28.8604 15.5932 29.2834 15.5932C29.6308 15.5932 29.9329 15.6307 30.1822 15.7058C30.4466 15.7883 30.658 15.9084 30.8091 16.081C30.9526 16.2386 31.0584 16.4187 31.1263 16.6138C31.1943 16.8089 31.2321 17.019 31.2321 17.2516C31.2321 17.3491 31.2245 17.4617 31.2094 17.5743C31.1943 17.6868 31.1717 17.8069 31.1414 17.9194L28.7849 29.1529C28.7245 29.438 28.6338 29.7157 28.5054 29.9708C28.377 30.2259 28.2184 30.466 28.022 30.6837C27.8105 30.9163 27.5386 31.0964 27.2138 31.2089C26.8966 31.3215 26.5189 31.374 26.096 31.374C25.7485 31.374 25.4464 31.3365 25.1972 31.2615C24.9328 31.1789 24.7213 31.0589 24.5702 30.8863C24.4267 30.7287 24.321 30.5486 24.253 30.3535C24.185 30.1584 24.1473 29.9483 24.1473 29.7157C24.1473 29.6181 24.1548 29.5055 24.1699 29.393C24.185 29.2804 24.2077 29.1679 24.2379 29.0478L26.5945 17.8144Z" fill="#FF7929"/>
<path id="Vector_2" d="M53.2038 26.0094C52.8413 27.5702 51.6252 28.6283 50.0466 28.6283C49.0874 28.6283 48.7475 28.028 48.7022 27.195C48.5889 25.1089 51.7159 24.306 53.4984 24.5911C53.4455 24.8913 53.3171 25.5216 53.2038 26.0094ZM53.2567 15.7215C51.95 15.7215 50.4319 15.819 49.3442 16.2993C48.5285 16.6595 47.8336 17.0872 47.675 18.0702C47.607 18.528 47.5843 18.9032 47.8865 19.2859C48.1735 19.6535 48.7097 19.8637 49.2007 19.8637C50.0542 19.8637 50.6962 19.6836 51.3987 19.4434C51.8518 19.2934 53.5588 18.8581 54.1404 19.526C54.4274 19.8637 54.3746 20.3139 54.2235 21.0868C45.7036 21.2519 44.4347 25.9794 45.1371 28.8759C45.7338 31.3072 48.1886 31.84 49.8352 31.84C54.4652 31.84 56.0287 29.116 56.8595 25.6417C56.8595 25.6417 57.5997 21.6271 57.9472 19.8487C58.2795 18.1227 57.9396 15.7215 53.2567 15.7215Z" fill="#FF7929"/>
<path id="Vector_3" d="M99.9051 25.9268C99.5426 27.4877 98.3265 28.5457 96.7479 28.5457C95.7887 28.5457 95.4488 27.9454 95.4035 27.1125C95.2902 25.0264 98.4172 24.2235 100.2 24.5086C100.147 24.8013 100.018 25.4316 99.9051 25.9268ZM99.958 15.7215C98.6513 15.7215 97.1331 15.819 96.0455 16.2993C95.2297 16.6595 94.5349 17.0872 94.3762 18.0702C94.3007 18.5205 94.2781 18.9032 94.5802 19.2859C94.8672 19.6535 95.4035 19.8637 95.8944 19.8637C96.7479 19.8637 97.3899 19.6836 98.0924 19.4434C98.5456 19.2934 100.253 18.8581 100.834 19.526C101.121 19.8637 101.068 20.3139 100.917 21.0868C92.3973 21.2519 91.1284 25.9794 91.8308 28.8759C92.42 31.3072 94.8823 31.84 96.5289 31.84C101.159 31.84 102.715 29.116 103.546 25.6417C103.546 25.6417 104.286 21.6271 104.633 19.8487C104.981 18.1227 104.648 15.7215 99.958 15.7215Z" fill="#FF7929"/>
<path id="Vector_4" d="M69.7907 16.0368H65.0926C61.5956 16.0744 59.7073 18.2955 59.1635 21.2596L57.4791 30.0617C57.1921 31.5025 57.7812 31.7276 58.4988 31.7276C58.6121 31.7276 58.6649 31.7276 58.8538 31.7276C60.2435 31.7276 61.4898 30.647 61.8901 28.9286C61.943 28.696 63.2346 21.7699 63.2346 21.7699C63.4838 20.5692 64.0805 19.7363 65.3419 19.7363C65.3494 19.7363 67.7513 19.7288 67.8118 19.7288C69.5943 19.7288 70.0701 18.4606 70.0701 18.4606L70.3949 17.7402C70.8859 16.4496 70.5082 16.0368 69.7907 16.0368Z" fill="#FF7929"/>
<path id="Vector_5" d="M49.2538 8.0075C49.2538 8.0075 44.7975 8 44.6313 8C40.8321 8 38.264 10.2887 37.9241 13.1402L37.3879 15.609L33.634 15.7141C32.6067 15.6315 31.7457 19.9913 32.9466 19.5861C34.5101 19.5861 36.6628 19.5861 36.6628 19.5861L34.6612 30.0316C34.3742 31.4724 34.9633 31.6975 35.6809 31.6975C35.7942 31.6975 35.847 31.6975 36.0359 31.6975C37.4256 31.6975 38.6643 30.6244 39.0647 28.906C39.11 28.7034 40.1145 23.3231 40.3562 22.0324C40.5073 21.282 40.8321 19.5861 40.8321 19.5861C40.8321 19.5861 44.1781 19.5786 44.2763 19.5786C46.0588 19.5786 46.5271 18.3104 46.5271 18.3104L46.8519 17.5976C47.3504 16.3069 46.9728 15.624 46.2552 15.624L41.5874 15.639L42.0481 13.4103C42.1312 12.6074 43.0149 11.7145 43.9213 11.7145C44.9334 11.7145 46.4365 11.7145 47.2144 11.7145C48.997 11.7145 49.4728 10.4463 49.4728 10.4463L49.7976 9.73341C50.281 8.42773 49.9713 8.0075 49.2538 8.0075Z" fill="#FF7929"/>
<path id="Vector_6" d="M85.8336 15.9616C84.3079 15.9616 82.7368 16.4568 81.4906 17.3198C80.3576 16.4418 78.8999 15.9616 77.359 15.9616C73.6656 15.9616 71.2184 17.7775 70.5461 21.1168L68.8391 30.0915C68.5521 31.5098 69.1412 31.7349 69.8437 31.7349C69.957 31.7349 70.0099 31.7349 70.1987 31.7349C71.5658 31.7349 72.797 30.6693 73.1897 28.9809C73.2426 28.7558 74.6021 21.4094 74.6021 21.4094H74.5946C74.8061 20.524 75.5992 19.6385 76.9738 19.601H77.0418C78.5071 19.601 79.0736 20.5615 78.847 21.9047C78.847 21.9047 77.3137 29.8964 77.3062 30.009L77.291 30.099C77.004 31.5173 77.5932 31.7424 78.2956 31.7424C78.4089 31.7424 78.4618 31.7424 78.6506 31.7424C80.0177 31.7424 81.2489 30.6768 81.6416 28.9884C81.6945 28.7633 83.0767 21.3869 83.0767 21.3869C83.2958 20.2989 84.1266 19.5485 85.5315 19.5485C87.6841 19.5485 87.3669 21.2894 87.3669 21.2894L85.7052 30.114C85.4182 31.5323 86.0073 31.7574 86.7098 31.7574C86.8231 31.7574 86.8684 31.7574 87.0648 31.7574C88.4319 31.7574 89.663 30.6918 90.0558 29.0034C90.1087 28.7783 91.5513 21.1993 91.5513 21.1993H91.5438C92.0121 18.6105 89.9803 15.9616 85.8336 15.9616Z" fill="#FF7929"/>
</g>
<g id="iso">
<path id="Vector_7" d="M110.187 24.7576H110.195C110.165 24.7576 110.142 24.7576 110.111 24.75C110.142 24.75 110.165 24.7576 110.187 24.7576Z" fill="white"/>
<path id="Vector_8" d="M141.396 23.3091L135.814 23.3992C135.014 23.3992 134.515 22.7463 134.757 22.0409L137.423 13.5165H137.415L128.186 13.509C127.438 13.5165 126.969 12.6835 127.211 11.9331L129.039 6.3802C129.039 6.3802 130.157 3.38612 133.133 2.50066H132.755C132.755 2.50066 127.664 2.62822 126.259 7.13059C126.003 7.94102 124.281 13.509 124.281 13.509C124.281 13.509 118.397 13.5014 117.573 13.5014H117.566C112.822 13.5014 111.123 18.0638 111.123 18.0638L110.791 19.0619C112.46 16.0678 116.184 15.9778 116.184 15.9778L122.067 15.9853C122.868 15.9853 123.314 16.6231 123.072 17.3285L120.391 25.928L129.394 25.9355C130.149 25.928 130.618 26.6033 130.368 27.3537L128.541 32.9067C128.541 32.9067 127.513 35.7507 124.809 36.8012C125.164 36.7937 130.187 36.6136 131.547 32.2688C131.796 31.4734 133.518 25.973 133.518 25.973C133.518 25.973 139.153 25.9805 139.968 25.9805H139.976C144.719 25.9805 146.426 21.2455 146.426 21.2455L146.487 21.0654C144.621 23.2866 141.396 23.3091 141.396 23.3091Z" fill="#79B827"/>
<path id="Vector_9" d="M148.526 14.7397C148.526 14.7547 148.526 14.7773 148.526 14.7923C148.526 14.8298 148.518 14.8598 148.511 14.8973C148.511 14.9123 148.503 14.9273 148.503 14.9423C148.496 14.9949 148.481 15.0474 148.458 15.0999L146.494 21.0656L146.434 21.2457C146.434 21.2457 144.734 25.9806 139.983 25.9806H139.976C139.16 25.9806 133.525 25.9731 133.525 25.9731C133.525 25.9731 131.803 31.4735 131.554 32.269C130.202 36.6137 125.172 36.7938 124.824 36.8013C124.809 36.8013 124.802 36.8013 124.802 36.8013L118.623 36.8989C117.74 36.8989 117.188 36.1785 117.452 35.3981L120.406 25.9581L110.186 25.9506H110.179C110.156 25.9506 110.134 25.9506 110.111 25.9431C110.088 25.9431 110.058 25.9431 110.035 25.9356C110.013 25.9281 109.99 25.9281 109.96 25.9206C109.937 25.9131 109.914 25.9131 109.892 25.9056C109.869 25.8981 109.847 25.8906 109.824 25.8831C109.801 25.8756 109.779 25.8681 109.756 25.8606C109.733 25.8531 109.711 25.8381 109.688 25.8231C109.665 25.8156 109.65 25.8006 109.627 25.793C109.605 25.778 109.582 25.763 109.567 25.748C109.552 25.733 109.529 25.7255 109.514 25.7105C109.492 25.6955 109.476 25.673 109.454 25.658C109.439 25.643 109.424 25.628 109.408 25.613C109.393 25.5904 109.371 25.5754 109.356 25.5529C109.34 25.5379 109.325 25.5229 109.318 25.5079C109.303 25.4854 109.288 25.4629 109.272 25.4404C109.265 25.4254 109.25 25.4103 109.242 25.3878C109.227 25.3653 109.22 25.3428 109.205 25.3128C109.197 25.2903 109.182 25.2753 109.174 25.2528C109.159 25.2303 109.152 25.2002 109.144 25.1777C109.137 25.1552 109.129 25.1402 109.121 25.1177C109.114 25.0877 109.106 25.0652 109.099 25.0352C109.091 25.0126 109.084 24.9976 109.084 24.9751C109.076 24.9451 109.076 24.9151 109.069 24.8851C109.069 24.8626 109.061 24.8476 109.061 24.825C109.061 24.795 109.053 24.765 109.053 24.735C109.053 24.7125 109.053 24.69 109.053 24.6675C109.053 24.6374 109.053 24.6074 109.053 24.5774C109.053 24.5549 109.053 24.5324 109.061 24.5099C109.061 24.4799 109.069 24.4498 109.076 24.4123C109.076 24.3898 109.084 24.3748 109.084 24.3523C109.091 24.2998 109.106 24.2472 109.129 24.1947L110.828 19.0395L111.153 18.0415C111.153 18.0415 112.853 13.4791 117.596 13.4791H117.604C118.427 13.4791 124.311 13.4866 124.311 13.4866C124.311 13.4866 126.033 7.92615 126.29 7.10821C127.694 2.60585 132.785 2.47828 132.785 2.47828H133.163L139.296 2.48578C140.18 2.48578 140.678 3.19115 140.406 3.97907L137.438 13.5016H137.446L147.408 13.5091H147.416C147.438 13.5091 147.461 13.5091 147.484 13.5166C147.506 13.5166 147.536 13.5166 147.559 13.5241C147.582 13.5241 147.604 13.5316 147.627 13.5316C147.65 13.5391 147.68 13.5391 147.703 13.5466C147.725 13.5541 147.748 13.5616 147.763 13.5616C147.786 13.5691 147.808 13.5766 147.839 13.5841C147.861 13.5916 147.876 13.5991 147.899 13.6066C147.922 13.6141 147.944 13.6216 147.967 13.6367C147.982 13.6442 148.005 13.6592 148.02 13.6667C148.043 13.6817 148.065 13.6892 148.08 13.7042C148.095 13.7117 148.111 13.7267 148.126 13.7417C148.148 13.7567 148.163 13.7717 148.186 13.7867C148.201 13.8017 148.216 13.8167 148.231 13.8318C148.246 13.8468 148.262 13.8618 148.277 13.8843C148.292 13.8993 148.299 13.9143 148.314 13.9368C148.33 13.9518 148.345 13.9743 148.352 13.9893C148.367 14.0043 148.375 14.0269 148.382 14.0494C148.39 14.0719 148.405 14.0869 148.413 14.1094C148.42 14.1319 148.435 14.1544 148.443 14.1694C148.45 14.1919 148.458 14.207 148.466 14.2295C148.473 14.252 148.481 14.2745 148.488 14.297C148.496 14.3195 148.503 14.3345 148.503 14.357C148.511 14.3795 148.511 14.4096 148.518 14.4321C148.518 14.4546 148.526 14.4696 148.526 14.4921C148.534 14.5221 148.533 14.5446 148.533 14.5746C148.533 14.5972 148.533 14.6122 148.533 14.6347C148.533 14.6722 148.534 14.7022 148.526 14.7397ZM149.531 12.7287C149.13 12.0008 148.262 11.6631 147.393 11.6631H147.385L139.455 11.6556L141.819 4.44431C142.091 3.61888 141.977 2.76343 141.494 2.08807C141.003 1.40521 140.195 1.0075 139.289 1.0075L132.778 1H132.763H132.74C132.581 1.0075 131.146 1.06003 129.485 1.73539C127.166 2.68839 125.565 4.39179 124.855 6.67299C124.673 7.25829 123.714 9.88468 123.2 11.5355C121.456 11.5355 118.2 11.5355 117.604 11.528C115.217 11.528 113.102 12.9538 111.478 14.7697C110.307 16.0829 109.801 17.3811 109.748 17.5237L109.741 17.5537L109.733 17.5762L107.709 23.7295C107.414 24.6299 107.565 25.613 108.109 26.3558C108.608 27.0387 109.371 27.4289 110.202 27.4289H110.209H110.217H118.397L116.055 34.9254C115.783 35.7358 115.904 36.5837 116.387 37.2591C116.894 37.9645 117.717 38.3697 118.646 38.3697H118.661H118.676L124.847 38.2721C125.051 38.2721 126.524 38.2346 128.208 37.5968C130.633 36.6813 132.294 34.9854 133.012 32.6892C133.193 32.1114 134.145 29.0723 134.658 27.4439H140.006C142.4 27.4439 144.523 26.4459 146.154 24.5549C147.317 23.2042 147.816 21.8685 147.869 21.7184L147.876 21.6959L147.884 21.6734L149.908 15.16C150.165 14.327 149.833 13.2765 149.531 12.7287Z" fill="white"/>
<path id="Vector_10" d="M128.563 32.9067L130.391 27.3538C130.64 26.5959 130.172 25.9281 129.417 25.9356L120.413 25.9281L123.095 17.3285C123.336 16.6232 122.891 15.9853 122.09 15.9853L116.206 15.9778C116.206 15.9778 112.475 16.0679 110.813 19.062L109.114 24.2172C109.099 24.2697 109.084 24.3222 109.069 24.3748C109.061 24.3973 109.061 24.4198 109.061 24.4348C109.053 24.4648 109.046 24.5023 109.046 24.5323C109.046 24.5548 109.046 24.5774 109.046 24.5999C109.046 24.6299 109.038 24.6599 109.038 24.6899C109.038 24.7124 109.038 24.7349 109.046 24.7499C109.046 24.78 109.046 24.81 109.053 24.84C109.053 24.8625 109.061 24.885 109.061 24.9C109.069 24.93 109.069 24.9601 109.076 24.9901C109.084 25.0126 109.091 25.0276 109.091 25.0501C109.099 25.0801 109.106 25.1101 109.114 25.1326C109.121 25.1552 109.129 25.1702 109.137 25.1927C109.144 25.2227 109.159 25.2452 109.167 25.2677C109.174 25.2902 109.189 25.3052 109.197 25.3278C109.212 25.3503 109.22 25.3728 109.235 25.4028C109.242 25.4178 109.257 25.4328 109.265 25.4553C109.28 25.4778 109.295 25.5003 109.31 25.5229C109.325 25.5379 109.34 25.5529 109.348 25.5679C109.363 25.5904 109.378 25.6129 109.401 25.6279C109.416 25.6429 109.431 25.6579 109.446 25.6729C109.469 25.6879 109.484 25.7105 109.507 25.7255C109.522 25.7405 109.544 25.748 109.56 25.763C109.582 25.778 109.597 25.793 109.62 25.808C109.643 25.823 109.658 25.8305 109.68 25.838C109.703 25.853 109.726 25.8605 109.748 25.8755C109.771 25.883 109.794 25.8905 109.809 25.8981C109.831 25.9056 109.854 25.9206 109.877 25.9206C109.899 25.9281 109.922 25.9281 109.945 25.9356C109.967 25.9431 109.99 25.9431 110.02 25.9506C110.043 25.9506 110.073 25.9506 110.096 25.9581C110.126 25.9581 110.149 25.9656 110.179 25.9656L120.398 25.9731L117.445 35.4131C117.173 36.1935 117.732 36.9139 118.616 36.9139L124.794 36.8163C124.794 36.8163 124.802 36.8163 124.817 36.8163C127.536 35.7582 128.563 32.9067 128.563 32.9067Z" fill="#1B8F43"/>
<path id="Vector_11" d="M129.046 6.37265L127.218 11.9256C126.969 12.676 127.437 13.5089 128.193 13.5014L137.423 13.5089L140.391 3.98639C140.663 3.19848 140.164 2.50061 139.281 2.49311L133.148 2.4856C130.164 3.38608 129.046 6.37265 129.046 6.37265Z" fill="#FFF200"/>
<path id="Vector_12" d="M148.526 14.4997C148.526 14.4772 148.518 14.4622 148.518 14.4397C148.511 14.4171 148.511 14.3871 148.503 14.3646C148.496 14.3421 148.488 14.3271 148.488 14.3046C148.481 14.2821 148.473 14.2596 148.466 14.237C148.458 14.2145 148.45 14.1995 148.443 14.177C148.435 14.1545 148.428 14.132 148.413 14.117C148.405 14.0945 148.39 14.0795 148.375 14.057C148.367 14.0419 148.352 14.0194 148.345 13.9969C148.33 13.9819 148.314 13.9594 148.307 13.9444C148.292 13.9294 148.284 13.9069 148.269 13.8919C148.254 13.8769 148.239 13.8618 148.224 13.8393C148.209 13.8243 148.194 13.8093 148.179 13.7943C148.163 13.7793 148.141 13.7643 148.118 13.7493C148.103 13.7343 148.088 13.7268 148.073 13.7118C148.05 13.6968 148.035 13.6893 148.012 13.6742C147.997 13.6667 147.975 13.6517 147.959 13.6442C147.937 13.6367 147.914 13.6217 147.892 13.6142C147.869 13.6067 147.854 13.5992 147.831 13.5917C147.808 13.5842 147.786 13.5767 147.756 13.5692C147.733 13.5617 147.71 13.5542 147.695 13.5542C147.672 13.5467 147.642 13.5467 147.62 13.5392C147.597 13.5392 147.574 13.5317 147.552 13.5317C147.529 13.5317 147.499 13.5317 147.476 13.5242C147.453 13.5242 147.423 13.5167 147.401 13.5167L137.438 13.5092L134.772 22.0262C134.53 22.7315 135.029 23.3844 135.829 23.3844L141.411 23.2943C141.411 23.2943 144.636 23.2718 146.509 21.0506L148.473 15.0925C148.488 15.04 148.503 14.9874 148.518 14.9349C148.518 14.9199 148.526 14.9049 148.526 14.8899C148.534 14.8524 148.541 14.8149 148.541 14.7848C148.541 14.7623 148.541 14.7473 148.541 14.7323C148.541 14.7023 148.549 14.6723 148.549 14.6348C148.549 14.6122 148.549 14.5972 148.549 14.5747C148.526 14.5597 148.526 14.5297 148.526 14.4997Z" fill="#FFF200"/>
<path id="Vector_13" d="M108.397 25.6429H108.404C108.374 25.6429 108.351 25.6429 108.321 25.6353C108.351 25.6353 108.374 25.6429 108.397 25.6429Z" fill="white"/>
</g>
</g>
</svg>